<?xml version="1.0" encoding="UTF-8" standalone="no"?>
<!-- Created with Inkscape (http://www.inkscape.org/) -->

<svg
   xmlns:dc="http://purl.org/dc/elements/1.1/"
   xmlns:cc="http://creativecommons.org/ns#"
   xmlns:rdf="http://www.w3.org/1999/02/22-rdf-syntax-ns#"
   xmlns:svg="http://www.w3.org/2000/svg"
   xmlns="http://www.w3.org/2000/svg"
   xmlns:sodipodi="http://sodipodi.sourceforge.net/DTD/sodipodi-0.dtd"
   xmlns:inkscape="http://www.inkscape.org/namespaces/inkscape"
   width="50"
   height="50"
   viewBox="0 0 13.229166 13.229167"
   version="1.1"
   id="svg821"
   inkscape:version="0.92.3 (2405546, 2018-03-11)"
   sodipodi:docname="assetNotFound.svg"
   inkscape:export-filename="C:\wollok\workspace\git\2019s1-juego-integrador-brenrodriguez_isaiaslafon_leatex-1\assets\assetNotFound.png"
   inkscape:export-xdpi="95.999687"
   inkscape:export-ydpi="95.999687">
  <defs
     id="defs815" />
  <sodipodi:namedview
     id="base"
     pagecolor="#ffffff"
     bordercolor="#666666"
     borderopacity="1.0"
     inkscape:pageopacity="0.0"
     inkscape:pageshadow="2"
     inkscape:zoom="1.1573864"
     inkscape:cx="-88.008257"
     inkscape:cy="65.230029"
     inkscape:document-units="mm"
     inkscape:current-layer="layer3"
     showgrid="true"
     units="px"
     showguides="true"
     inkscape:guide-bbox="true"
     inkscape:snap-global="true"
     inkscape:snap-page="true"
     inkscape:window-width="1366"
     inkscape:window-height="749"
     inkscape:window-x="-4"
     inkscape:window-y="-4"
     inkscape:window-maximized="1">
    <sodipodi:guide
       position="5.2535451,9.2947343"
       orientation="1,0"
       id="guide1420"
       inkscape:locked="false" />
    <sodipodi:guide
       position="9.5432967,3.8538778"
       orientation="0.70710678,0.70710678"
       id="guide5164"
       inkscape:locked="false" />
    <inkscape:grid
       type="xygrid"
       id="grid5182" />
  </sodipodi:namedview>
  <metadata
     id="metadata818">
    <rdf:RDF>
      <cc:Work
         rdf:about="">
        <dc:format>image/svg+xml</dc:format>
        <dc:type
           rdf:resource="http://purl.org/dc/dcmitype/StillImage" />
        <dc:title></dc:title>
      </cc:Work>
    </rdf:RDF>
  </metadata>
  <g
     inkscape:groupmode="layer"
     id="layer2"
     inkscape:label="chukle"
     style="display:inline;opacity:0.51999996">
    <rect
       transform="translate(0,-283.77081)"
       style="opacity:1;vector-effect:none;fill:#000000;fill-opacity:1;stroke:none;stroke-width:2.89504075;stroke-linecap:butt;stroke-linejoin:miter;stroke-miterlimit:4;stroke-dasharray:none;stroke-dashoffset:0;stroke-opacity:1"
       id="rect5187"
       width="1.3229166"
       height="1.322932"
       x="0"
       y="283.77081" />
    <rect
       transform="translate(0,-283.77081)"
       y="283.77081"
       x="2.6458333"
       height="1.322932"
       width="1.3229166"
       id="rect5189"
       style="opacity:1;vector-effect:none;fill:#000000;fill-opacity:1;stroke:none;stroke-width:2.89504075;stroke-linecap:butt;stroke-linejoin:miter;stroke-miterlimit:4;stroke-dasharray:none;stroke-dashoffset:0;stroke-opacity:1" />
    <rect
       transform="translate(0,-283.77081)"
       style="opacity:1;vector-effect:none;fill:#000000;fill-opacity:1;stroke:none;stroke-width:2.89504075;stroke-linecap:butt;stroke-linejoin:miter;stroke-miterlimit:4;stroke-dasharray:none;stroke-dashoffset:0;stroke-opacity:1"
       id="rect5191"
       width="1.3229166"
       height="1.322932"
       x="5.2916665"
       y="283.77081" />
    <rect
       style="opacity:1;vector-effect:none;fill:#000000;fill-opacity:1;stroke:none;stroke-width:2.89504075;stroke-linecap:butt;stroke-linejoin:miter;stroke-miterlimit:4;stroke-dasharray:none;stroke-dashoffset:0;stroke-opacity:1"
       id="rect5202"
       width="1.3229166"
       height="1.322932"
       x="10.583333"
       y="-2.0345053e-005" />
    <rect
       y="-2.0345053e-005"
       x="7.9375"
       height="1.322932"
       width="1.3229166"
       id="rect5204"
       style="opacity:1;vector-effect:none;fill:#000000;fill-opacity:1;stroke:none;stroke-width:2.89504075;stroke-linecap:butt;stroke-linejoin:miter;stroke-miterlimit:4;stroke-dasharray:none;stroke-dashoffset:0;stroke-opacity:1" />
    <rect
       y="1.3228964"
       x="1.322917"
       height="1.322932"
       width="1.3229166"
       id="rect5206"
       style="opacity:1;vector-effect:none;fill:#000000;fill-opacity:1;stroke:none;stroke-width:2.89504075;stroke-linecap:butt;stroke-linejoin:miter;stroke-miterlimit:4;stroke-dasharray:none;stroke-dashoffset:0;stroke-opacity:1" />
    <rect
       style="opacity:1;vector-effect:none;fill:#000000;fill-opacity:1;stroke:none;stroke-width:2.89504075;stroke-linecap:butt;stroke-linejoin:miter;stroke-miterlimit:4;stroke-dasharray:none;stroke-dashoffset:0;stroke-opacity:1"
       id="rect5208"
       width="1.3229166"
       height="1.322932"
       x="3.9687502"
       y="1.3228964" />
    <rect
       y="1.3228964"
       x="6.6145835"
       height="1.322932"
       width="1.3229166"
       id="rect5210"
       style="opacity:1;vector-effect:none;fill:#000000;fill-opacity:1;stroke:none;stroke-width:2.89504075;stroke-linecap:butt;stroke-linejoin:miter;stroke-miterlimit:4;stroke-dasharray:none;stroke-dashoffset:0;stroke-opacity:1" />
    <rect
       y="1.322873"
       x="11.90625"
       height="1.322932"
       width="1.3229166"
       id="rect5212"
       style="opacity:1;vector-effect:none;fill:#000000;fill-opacity:1;stroke:none;stroke-width:2.89504075;stroke-linecap:butt;stroke-linejoin:miter;stroke-miterlimit:4;stroke-dasharray:none;stroke-dashoffset:0;stroke-opacity:1" />
    <rect
       style="opacity:1;vector-effect:none;fill:#000000;fill-opacity:1;stroke:none;stroke-width:2.89504075;stroke-linecap:butt;stroke-linejoin:miter;stroke-miterlimit:4;stroke-dasharray:none;stroke-dashoffset:0;stroke-opacity:1"
       id="rect5214"
       width="1.3229166"
       height="1.322932"
       x="9.260417"
       y="1.322873" />
    <rect
       style="opacity:1;vector-effect:none;fill:#000000;fill-opacity:1;stroke:none;stroke-width:2.89504075;stroke-linecap:butt;stroke-linejoin:miter;stroke-miterlimit:4;stroke-dasharray:none;stroke-dashoffset:0;stroke-opacity:1"
       id="rect5216"
       width="1.3229166"
       height="1.322932"
       x="0"
       y="2.6458182" />
    <rect
       y="2.6458182"
       x="2.6458333"
       height="1.322932"
       width="1.3229166"
       id="rect5218"
       style="opacity:1;vector-effect:none;fill:#000000;fill-opacity:1;stroke:none;stroke-width:2.89504075;stroke-linecap:butt;stroke-linejoin:miter;stroke-miterlimit:4;stroke-dasharray:none;stroke-dashoffset:0;stroke-opacity:1" />
    <rect
       style="opacity:1;vector-effect:none;fill:#000000;fill-opacity:1;stroke:none;stroke-width:2.89504075;stroke-linecap:butt;stroke-linejoin:miter;stroke-miterlimit:4;stroke-dasharray:none;stroke-dashoffset:0;stroke-opacity:1"
       id="rect5220"
       width="1.3229166"
       height="1.322932"
       x="5.2916665"
       y="2.6458182" />
    <rect
       style="opacity:1;vector-effect:none;fill:#000000;fill-opacity:1;stroke:none;stroke-width:2.89504075;stroke-linecap:butt;stroke-linejoin:miter;stroke-miterlimit:4;stroke-dasharray:none;stroke-dashoffset:0;stroke-opacity:1"
       id="rect5222"
       width="1.3229166"
       height="1.322932"
       x="10.583333"
       y="2.6457949" />
    <rect
       y="2.6457949"
       x="7.9375"
       height="1.322932"
       width="1.3229166"
       id="rect5224"
       style="opacity:1;vector-effect:none;fill:#000000;fill-opacity:1;stroke:none;stroke-width:2.89504075;stroke-linecap:butt;stroke-linejoin:miter;stroke-miterlimit:4;stroke-dasharray:none;stroke-dashoffset:0;stroke-opacity:1" />
    <rect
       y="3.9687347"
       x="1.3229166"
       height="1.322932"
       width="1.3229166"
       id="rect5226"
       style="opacity:1;vector-effect:none;fill:#000000;fill-opacity:1;stroke:none;stroke-width:2.89504075;stroke-linecap:butt;stroke-linejoin:miter;stroke-miterlimit:4;stroke-dasharray:none;stroke-dashoffset:0;stroke-opacity:1" />
    <rect
       style="opacity:1;vector-effect:none;fill:#000000;fill-opacity:1;stroke:none;stroke-width:2.89504075;stroke-linecap:butt;stroke-linejoin:miter;stroke-miterlimit:4;stroke-dasharray:none;stroke-dashoffset:0;stroke-opacity:1"
       id="rect5228"
       width="1.3229166"
       height="1.322932"
       x="3.96875"
       y="3.9687347" />
    <rect
       y="3.9687347"
       x="6.614583"
       height="1.322932"
       width="1.3229166"
       id="rect5230"
       style="opacity:1;vector-effect:none;fill:#000000;fill-opacity:1;stroke:none;stroke-width:2.89504075;stroke-linecap:butt;stroke-linejoin:miter;stroke-miterlimit:4;stroke-dasharray:none;stroke-dashoffset:0;stroke-opacity:1" />
    <rect
       y="3.9687114"
       x="11.90625"
       height="1.322932"
       width="1.3229166"
       id="rect5232"
       style="opacity:1;vector-effect:none;fill:#000000;fill-opacity:1;stroke:none;stroke-width:2.89504075;stroke-linecap:butt;stroke-linejoin:miter;stroke-miterlimit:4;stroke-dasharray:none;stroke-dashoffset:0;stroke-opacity:1" />
    <rect
       style="opacity:1;vector-effect:none;fill:#000000;fill-opacity:1;stroke:none;stroke-width:2.89504075;stroke-linecap:butt;stroke-linejoin:miter;stroke-miterlimit:4;stroke-dasharray:none;stroke-dashoffset:0;stroke-opacity:1"
       id="rect5234"
       width="1.3229166"
       height="1.322932"
       x="9.260417"
       y="3.9687114" />
    <rect
       y="5.2916694"
       x="-9.3998878e-016"
       height="1.322932"
       width="1.3229166"
       id="rect5264"
       style="opacity:1;vector-effect:none;fill:#000000;fill-opacity:1;stroke:none;stroke-width:2.89504075;stroke-linecap:butt;stroke-linejoin:miter;stroke-miterlimit:4;stroke-dasharray:none;stroke-dashoffset:0;stroke-opacity:1" />
    <rect
       style="opacity:1;vector-effect:none;fill:#000000;fill-opacity:1;stroke:none;stroke-width:2.89504075;stroke-linecap:butt;stroke-linejoin:miter;stroke-miterlimit:4;stroke-dasharray:none;stroke-dashoffset:0;stroke-opacity:1"
       id="rect5266"
       width="1.3229166"
       height="1.322932"
       x="2.6458333"
       y="5.2916694" />
    <rect
       y="5.2916694"
       x="5.2916665"
       height="1.322932"
       width="1.3229166"
       id="rect5268"
       style="opacity:1;vector-effect:none;fill:#000000;fill-opacity:1;stroke:none;stroke-width:2.89504075;stroke-linecap:butt;stroke-linejoin:miter;stroke-miterlimit:4;stroke-dasharray:none;stroke-dashoffset:0;stroke-opacity:1" />
    <rect
       y="5.291646"
       x="10.583333"
       height="1.322932"
       width="1.3229166"
       id="rect5270"
       style="opacity:1;vector-effect:none;fill:#000000;fill-opacity:1;stroke:none;stroke-width:2.89504075;stroke-linecap:butt;stroke-linejoin:miter;stroke-miterlimit:4;stroke-dasharray:none;stroke-dashoffset:0;stroke-opacity:1" />
    <rect
       style="opacity:1;vector-effect:none;fill:#000000;fill-opacity:1;stroke:none;stroke-width:2.89504075;stroke-linecap:butt;stroke-linejoin:miter;stroke-miterlimit:4;stroke-dasharray:none;stroke-dashoffset:0;stroke-opacity:1"
       id="rect5272"
       width="1.3229166"
       height="1.322932"
       x="7.9375"
       y="5.291646" />
    <rect
       style="opacity:1;vector-effect:none;fill:#000000;fill-opacity:1;stroke:none;stroke-width:2.89504075;stroke-linecap:butt;stroke-linejoin:miter;stroke-miterlimit:4;stroke-dasharray:none;stroke-dashoffset:0;stroke-opacity:1"
       id="rect5274"
       width="1.3229166"
       height="1.322932"
       x="1.322917"
       y="6.6145625" />
    <rect
       y="6.6145625"
       x="3.9687502"
       height="1.322932"
       width="1.3229166"
       id="rect5276"
       style="opacity:1;vector-effect:none;fill:#000000;fill-opacity:1;stroke:none;stroke-width:2.89504075;stroke-linecap:butt;stroke-linejoin:miter;stroke-miterlimit:4;stroke-dasharray:none;stroke-dashoffset:0;stroke-opacity:1" />
    <rect
       style="opacity:1;vector-effect:none;fill:#000000;fill-opacity:1;stroke:none;stroke-width:2.89504075;stroke-linecap:butt;stroke-linejoin:miter;stroke-miterlimit:4;stroke-dasharray:none;stroke-dashoffset:0;stroke-opacity:1"
       id="rect5278"
       width="1.3229166"
       height="1.322932"
       x="6.6145835"
       y="6.6145625" />
    <rect
       style="opacity:1;vector-effect:none;fill:#000000;fill-opacity:1;stroke:none;stroke-width:2.89504075;stroke-linecap:butt;stroke-linejoin:miter;stroke-miterlimit:4;stroke-dasharray:none;stroke-dashoffset:0;stroke-opacity:1"
       id="rect5280"
       width="1.3229166"
       height="1.322932"
       x="11.90625"
       y="6.6145391" />
    <rect
       y="6.6145391"
       x="9.260417"
       height="1.322932"
       width="1.3229166"
       id="rect5282"
       style="opacity:1;vector-effect:none;fill:#000000;fill-opacity:1;stroke:none;stroke-width:2.89504075;stroke-linecap:butt;stroke-linejoin:miter;stroke-miterlimit:4;stroke-dasharray:none;stroke-dashoffset:0;stroke-opacity:1" />
    <rect
       y="7.9374847"
       x="-9.3998878e-016"
       height="1.322932"
       width="1.3229166"
       id="rect5284"
       style="opacity:1;vector-effect:none;fill:#000000;fill-opacity:1;stroke:none;stroke-width:2.89504075;stroke-linecap:butt;stroke-linejoin:miter;stroke-miterlimit:4;stroke-dasharray:none;stroke-dashoffset:0;stroke-opacity:1" />
    <rect
       style="opacity:1;vector-effect:none;fill:#000000;fill-opacity:1;stroke:none;stroke-width:2.89504075;stroke-linecap:butt;stroke-linejoin:miter;stroke-miterlimit:4;stroke-dasharray:none;stroke-dashoffset:0;stroke-opacity:1"
       id="rect5286"
       width="1.3229166"
       height="1.322932"
       x="2.6458333"
       y="7.9374847" />
    <rect
       y="7.9374847"
       x="5.2916665"
       height="1.322932"
       width="1.3229166"
       id="rect5288"
       style="opacity:1;vector-effect:none;fill:#000000;fill-opacity:1;stroke:none;stroke-width:2.89504075;stroke-linecap:butt;stroke-linejoin:miter;stroke-miterlimit:4;stroke-dasharray:none;stroke-dashoffset:0;stroke-opacity:1" />
    <rect
       y="7.9374614"
       x="10.583333"
       height="1.322932"
       width="1.3229166"
       id="rect5290"
       style="opacity:1;vector-effect:none;fill:#000000;fill-opacity:1;stroke:none;stroke-width:2.89504075;stroke-linecap:butt;stroke-linejoin:miter;stroke-miterlimit:4;stroke-dasharray:none;stroke-dashoffset:0;stroke-opacity:1" />
    <rect
       style="opacity:1;vector-effect:none;fill:#000000;fill-opacity:1;stroke:none;stroke-width:2.89504075;stroke-linecap:butt;stroke-linejoin:miter;stroke-miterlimit:4;stroke-dasharray:none;stroke-dashoffset:0;stroke-opacity:1"
       id="rect5292"
       width="1.3229166"
       height="1.322932"
       x="7.9375"
       y="7.9374614" />
    <rect
       style="opacity:1;vector-effect:none;fill:#000000;fill-opacity:1;stroke:none;stroke-width:2.89504075;stroke-linecap:butt;stroke-linejoin:miter;stroke-miterlimit:4;stroke-dasharray:none;stroke-dashoffset:0;stroke-opacity:1"
       id="rect5294"
       width="1.3229166"
       height="1.322932"
       x="1.3229166"
       y="9.2604008" />
    <rect
       y="9.2604008"
       x="3.96875"
       height="1.322932"
       width="1.3229166"
       id="rect5296"
       style="opacity:1;vector-effect:none;fill:#000000;fill-opacity:1;stroke:none;stroke-width:2.89504075;stroke-linecap:butt;stroke-linejoin:miter;stroke-miterlimit:4;stroke-dasharray:none;stroke-dashoffset:0;stroke-opacity:1" />
    <rect
       style="opacity:1;vector-effect:none;fill:#000000;fill-opacity:1;stroke:none;stroke-width:2.89504075;stroke-linecap:butt;stroke-linejoin:miter;stroke-miterlimit:4;stroke-dasharray:none;stroke-dashoffset:0;stroke-opacity:1"
       id="rect5298"
       width="1.3229166"
       height="1.322932"
       x="6.614583"
       y="9.2604008" />
    <rect
       style="opacity:1;vector-effect:none;fill:#000000;fill-opacity:1;stroke:none;stroke-width:2.89504075;stroke-linecap:butt;stroke-linejoin:miter;stroke-miterlimit:4;stroke-dasharray:none;stroke-dashoffset:0;stroke-opacity:1"
       id="rect5300"
       width="1.3229166"
       height="1.322932"
       x="11.90625"
       y="9.2603779" />
    <rect
       y="9.2603779"
       x="9.260417"
       height="1.322932"
       width="1.3229166"
       id="rect5302"
       style="opacity:1;vector-effect:none;fill:#000000;fill-opacity:1;stroke:none;stroke-width:2.89504075;stroke-linecap:butt;stroke-linejoin:miter;stroke-miterlimit:4;stroke-dasharray:none;stroke-dashoffset:0;stroke-opacity:1" />
    <rect
       style="opacity:1;vector-effect:none;fill:#000000;fill-opacity:1;stroke:none;stroke-width:2.89504075;stroke-linecap:butt;stroke-linejoin:miter;stroke-miterlimit:4;stroke-dasharray:none;stroke-dashoffset:0;stroke-opacity:1"
       id="rect5322"
       width="1.3229166"
       height="1.322932"
       x="-3.1789145e-007"
       y="10.583342" />
    <rect
       y="10.583342"
       x="2.645833"
       height="1.322932"
       width="1.3229166"
       id="rect5324"
       style="opacity:1;vector-effect:none;fill:#000000;fill-opacity:1;stroke:none;stroke-width:2.89504075;stroke-linecap:butt;stroke-linejoin:miter;stroke-miterlimit:4;stroke-dasharray:none;stroke-dashoffset:0;stroke-opacity:1" />
    <rect
       style="opacity:1;vector-effect:none;fill:#000000;fill-opacity:1;stroke:none;stroke-width:2.89504075;stroke-linecap:butt;stroke-linejoin:miter;stroke-miterlimit:4;stroke-dasharray:none;stroke-dashoffset:0;stroke-opacity:1"
       id="rect5326"
       width="1.3229166"
       height="1.322932"
       x="5.291666"
       y="10.583342" />
    <rect
       style="opacity:1;vector-effect:none;fill:#000000;fill-opacity:1;stroke:none;stroke-width:2.89504075;stroke-linecap:butt;stroke-linejoin:miter;stroke-miterlimit:4;stroke-dasharray:none;stroke-dashoffset:0;stroke-opacity:1"
       id="rect5328"
       width="1.3229166"
       height="1.322932"
       x="10.583333"
       y="10.583318" />
    <rect
       y="10.583318"
       x="7.9374995"
       height="1.322932"
       width="1.3229166"
       id="rect5330"
       style="opacity:1;vector-effect:none;fill:#000000;fill-opacity:1;stroke:none;stroke-width:2.89504075;stroke-linecap:butt;stroke-linejoin:miter;stroke-miterlimit:4;stroke-dasharray:none;stroke-dashoffset:0;stroke-opacity:1" />
    <rect
       y="11.906258"
       x="1.3229163"
       height="1.322932"
       width="1.3229166"
       id="rect5332"
       style="opacity:1;vector-effect:none;fill:#000000;fill-opacity:1;stroke:none;stroke-width:2.89504075;stroke-linecap:butt;stroke-linejoin:miter;stroke-miterlimit:4;stroke-dasharray:none;stroke-dashoffset:0;stroke-opacity:1" />
    <rect
       style="opacity:1;vector-effect:none;fill:#000000;fill-opacity:1;stroke:none;stroke-width:2.89504075;stroke-linecap:butt;stroke-linejoin:miter;stroke-miterlimit:4;stroke-dasharray:none;stroke-dashoffset:0;stroke-opacity:1"
       id="rect5334"
       width="1.3229166"
       height="1.322932"
       x="3.9687498"
       y="11.906258" />
    <rect
       y="11.906258"
       x="6.6145825"
       height="1.322932"
       width="1.3229166"
       id="rect5336"
       style="opacity:1;vector-effect:none;fill:#000000;fill-opacity:1;stroke:none;stroke-width:2.89504075;stroke-linecap:butt;stroke-linejoin:miter;stroke-miterlimit:4;stroke-dasharray:none;stroke-dashoffset:0;stroke-opacity:1" />
    <rect
       y="11.906235"
       x="11.90625"
       height="1.322932"
       width="1.3229166"
       id="rect5338"
       style="opacity:1;vector-effect:none;fill:#000000;fill-opacity:1;stroke:none;stroke-width:2.89504075;stroke-linecap:butt;stroke-linejoin:miter;stroke-miterlimit:4;stroke-dasharray:none;stroke-dashoffset:0;stroke-opacity:1" />
    <rect
       style="opacity:1;vector-effect:none;fill:#000000;fill-opacity:1;stroke:none;stroke-width:2.89504075;stroke-linecap:butt;stroke-linejoin:miter;stroke-miterlimit:4;stroke-dasharray:none;stroke-dashoffset:0;stroke-opacity:1"
       id="rect5340"
       width="1.3229166"
       height="1.322932"
       x="9.260417"
       y="11.906235" />
  </g>
  <g
     inkscape:groupmode="layer"
     id="layer3"
     inkscape:label="logo"
     style="display:inline">
    <g
       id="g5344"
       style="stroke:#ff4f4f;stroke-opacity:1">
      <circle
         r="5.0060511"
         cy="290.38541"
         cx="6.6145835"
         id="path5162"
         style="fill:none;fill-opacity:1;stroke:#ff4f4f;stroke-width:1.89010346;stroke-miterlimit:4;stroke-dasharray:none;stroke-opacity:1"
         transform="translate(0,-283.77081)" />
      <path
         inkscape:connector-curvature="0"
         id="path5166"
         d="m 2.6289916,286.5435 7.9711834,7.68381"
         style="opacity:1;vector-effect:none;fill:none;fill-opacity:1;stroke:#ff4f4f;stroke-width:1.73699999;stroke-linecap:butt;stroke-linejoin:miter;stroke-miterlimit:4;stroke-dasharray:none;stroke-dashoffset:0;stroke-opacity:1"
         transform="translate(0,-283.77081)" />
    </g>
  </g>
  <g
     inkscape:label="text"
     inkscape:groupmode="layer"
     id="layer1"
     transform="translate(0,-283.77082)"
     style="display:inline">
    <g
       id="g5160"
       transform="translate(0,-0.69466347)"
       style="fill:#ff0000;fill-opacity:1;stroke:#b50000;stroke-width:0.30000001;stroke-miterlimit:4;stroke-dasharray:none;stroke-opacity:1">
      <g
         transform="matrix(0.91606776,0,0,0.91606776,1.8752691,25.330708)"
         id="g1427"
         style="fill:#ff0000;fill-opacity:1;stroke:#b50000;stroke-width:0.32748669;stroke-miterlimit:4;stroke-dasharray:none;stroke-opacity:1">
        <path
           inkscape:connector-curvature="0"
           id="path1380"
           style="font-style:normal;font-variant:normal;font-weight:normal;font-stretch:normal;font-size:5.64444447px;line-height:0;font-family:'Browallia New';-inkscape-font-specification:'Browallia New';text-align:center;letter-spacing:0px;word-spacing:0px;text-anchor:middle;fill:#ff0000;fill-opacity:1;stroke:#b50000;stroke-width:0.32748669;stroke-miterlimit:4;stroke-dasharray:none;stroke-opacity:1"
           d="m -0.81589843,287.08429 1.01423611,-2.63757 H 0.57316407 L 1.653546,287.08429 H 1.2539149 l -0.30592444,-0.79926 h -1.10243055 l -0.28938803,0.79926 z m 0.76067709,-1.08314 h 0.89572483 l -0.27560764,-0.73036 q -0.13780382,-0.36656 -0.1874132,-0.5457 -0.0496094,0.25356 -0.14331597,0.5016 z" />
        <path
           inkscape:connector-curvature="0"
           id="path1382"
           style="font-style:normal;font-variant:normal;font-weight:normal;font-stretch:normal;font-size:5.64444447px;line-height:0;font-family:'Browallia New';-inkscape-font-specification:'Browallia New';text-align:center;letter-spacing:0px;word-spacing:0px;text-anchor:middle;fill:#ff0000;fill-opacity:1;stroke:#b50000;stroke-width:0.32748669;stroke-miterlimit:4;stroke-dasharray:none;stroke-opacity:1"
           d="m 1.8133983,286.23817 0.3307292,-0.0303 q 0.038585,0.31695 0.253559,0.46302 0.214974,0.14607 0.5236546,0.14607 0.327973,0 0.4905816,-0.12954 0.1653645,-0.13229 0.1653645,-0.3197 0,-0.12954 -0.082682,-0.22324 -0.079926,-0.0965 -0.2204861,-0.14607 -0.1405599,-0.0524 -0.5016059,-0.13505 -0.2673394,-0.0606 -0.4492404,-0.14056 -0.1819011,-0.0799 -0.2949002,-0.23151 -0.1129991,-0.15159 -0.1129991,-0.3638 0,-0.226 0.107487,-0.3831 0.110243,-0.1571 0.327973,-0.24805 0.2177301,-0.0937 0.4905816,-0.0937 0.4768013,0 0.7248481,0.21773 0.250803,0.21773 0.2673394,0.57051 l -0.3334852,0.0248 q -0.055122,-0.50712 -0.6421658,-0.50712 -0.6063368,0 -0.6063368,0.39688 0,0.11575 0.074414,0.20119 0.074414,0.0827 0.1901692,0.12402 0.1185113,0.0413 0.3638021,0.0965 0.4354601,0.0992 0.5898004,0.17087 0.1543402,0.0717 0.2508029,0.16812 0.096463,0.0937 0.143316,0.21222 0.049609,0.11851 0.049609,0.26183 0,0.36931 -0.2838759,0.57877 -0.2838759,0.20947 -0.6917752,0.20947 -0.5457031,0 -0.8268229,-0.24529 -0.2811198,-0.24529 -0.2976563,-0.64493 z" />
        <path
           inkscape:connector-curvature="0"
           id="path1384"
           style="font-style:normal;font-variant:normal;font-weight:normal;font-stretch:normal;font-size:5.64444447px;line-height:0;font-family:'Browallia New';-inkscape-font-specification:'Browallia New';text-align:center;letter-spacing:0px;word-spacing:0px;text-anchor:middle;fill:#ff0000;fill-opacity:1;stroke:#b50000;stroke-width:0.32748669;stroke-miterlimit:4;stroke-dasharray:none;stroke-opacity:1"
           d="m 4.2718184,286.23817 0.3307292,-0.0303 q 0.038585,0.31695 0.253559,0.46302 0.2149739,0.14607 0.5236545,0.14607 0.3279731,0 0.4905816,-0.12954 0.1653646,-0.13229 0.1653646,-0.3197 0,-0.12954 -0.082682,-0.22324 -0.079926,-0.0965 -0.2204861,-0.14607 -0.1405599,-0.0524 -0.5016059,-0.13505 -0.2673394,-0.0606 -0.4492405,-0.14056 -0.181901,-0.0799 -0.2949002,-0.23151 -0.1129991,-0.15159 -0.1129991,-0.3638 0,-0.226 0.107487,-0.3831 0.110243,-0.1571 0.3279731,-0.24805 0.21773,-0.0937 0.4905816,-0.0937 0.4768012,0 0.7248481,0.21773 0.2508029,0.21773 0.2673394,0.57051 l -0.3334853,0.0248 q -0.055122,-0.50712 -0.6421658,-0.50712 -0.6063368,0 -0.6063368,0.39688 0,0.11575 0.074414,0.20119 0.074414,0.0827 0.1901693,0.12402 0.1185112,0.0413 0.363802,0.0965 0.4354601,0.0992 0.5898004,0.17087 0.1543403,0.0717 0.250803,0.16812 0.096463,0.0937 0.1433159,0.21222 0.049609,0.11851 0.049609,0.26183 0,0.36931 -0.2838759,0.57877 -0.2838758,0.20947 -0.6917751,0.20947 -0.5457032,0 -0.826823,-0.24529 -0.2811198,-0.24529 -0.2976562,-0.64493 z" />
        <path
           inkscape:connector-curvature="0"
           id="path1386"
           style="font-style:normal;font-variant:normal;font-weight:normal;font-stretch:normal;font-size:5.64444447px;line-height:0;font-family:'Browallia New';-inkscape-font-specification:'Browallia New';text-align:center;letter-spacing:0px;word-spacing:0px;text-anchor:middle;fill:#ff0000;fill-opacity:1;stroke:#b50000;stroke-width:0.32748669;stroke-miterlimit:4;stroke-dasharray:none;stroke-opacity:1"
           d="m 6.8570182,287.08429 v -2.63757 H 8.764223 v 0.31144 H 7.2042838 v 0.80753 h 1.4607205 v 0.30868 H 7.2042838 v 0.89848 h 1.6205729 v 0.31144 z" />
        <path
           inkscape:connector-curvature="0"
           id="path1388"
           style="font-style:normal;font-variant:normal;font-weight:normal;font-stretch:normal;font-size:5.64444447px;line-height:0;font-family:'Browallia New';-inkscape-font-specification:'Browallia New';text-align:center;letter-spacing:0px;word-spacing:0px;text-anchor:middle;fill:#ff0000;fill-opacity:1;stroke:#b50000;stroke-width:0.32748669;stroke-miterlimit:4;stroke-dasharray:none;stroke-opacity:1"
           d="m 9.9796524,287.08429 v -2.32613 H 9.1087322 v -0.31144 h 2.0918618 v 0.31144 h -0.873676 v 2.32613 z" />
      </g>
      <g
         transform="matrix(0.91606776,0,0,0.91606776,1.7267534,17.114604)"
         id="g1432"
         style="fill:#ff0000;fill-opacity:1;stroke:#b50000;stroke-width:0.32748669;stroke-miterlimit:4;stroke-dasharray:none;stroke-opacity:1">
        <path
           inkscape:connector-curvature="0"
           id="path1390"
           style="font-style:normal;font-variant:normal;font-weight:normal;font-stretch:normal;font-size:5.64444447px;line-height:0;font-family:'Browallia New';-inkscape-font-specification:'Browallia New';text-align:center;letter-spacing:0px;word-spacing:0px;text-anchor:middle;fill:#ff0000;fill-opacity:1;stroke:#b50000;stroke-width:0.32748669;stroke-miterlimit:4;stroke-dasharray:none;stroke-opacity:1"
           d="m 1.6259853,300.31346 v -2.63757 h 0.3582899 l 1.3835503,2.06981 v -2.06981 h 0.3362414 v 2.63757 h -0.35829 l -1.3863064,-2.07257 v 2.07257 z" />
        <path
           inkscape:connector-curvature="0"
           id="path1392"
           style="font-style:normal;font-variant:normal;font-weight:normal;font-stretch:normal;font-size:5.64444447px;line-height:0;font-family:'Browallia New';-inkscape-font-specification:'Browallia New';text-align:center;letter-spacing:0px;word-spacing:0px;text-anchor:middle;fill:#ff0000;fill-opacity:1;stroke:#b50000;stroke-width:0.32748669;stroke-miterlimit:4;stroke-dasharray:none;stroke-opacity:1"
           d="m 4.1808682,299.02912 q 0,-0.39687 0.1405599,-0.70831 0.1405599,-0.31143 0.4244357,-0.5016 0.2838759,-0.19017 0.6972874,-0.19017 0.2756076,0 0.507118,0.0992 0.2342665,0.0992 0.3996311,0.27836 0.1681206,0.17639 0.2590712,0.4327 0.093707,0.25356 0.093707,0.55949 0,0.42443 -0.1543403,0.72209 -0.1515842,0.29766 -0.4547526,0.46853 -0.3004123,0.16812 -0.6531901,0.16812 -0.3638021,0 -0.6587023,-0.17363 -0.2949002,-0.17639 -0.4492404,-0.48507 -0.1515842,-0.31144 -0.1515842,-0.66973 z m 0.3582899,0.006 q 0,0.31419 0.1157552,0.5457 0.1185113,0.23151 0.3141927,0.35553 0.1984375,0.12403 0.4712891,0.12403 0.4244357,0 0.6614583,-0.29215 0.2397787,-0.2949 0.2397787,-0.7717 0,-0.32797 -0.1129992,-0.56775 -0.1129991,-0.24254 -0.3114366,-0.36931 -0.1956814,-0.12954 -0.4712891,-0.12954 -0.2204861,0 -0.3886067,0.0744 -0.1681207,0.0717 -0.286632,0.21773 -0.1157552,0.14608 -0.1736328,0.35003 -0.057878,0.20119 -0.057878,0.46302 z" />
        <path
           inkscape:connector-curvature="0"
           id="path1394"
           style="font-style:normal;font-variant:normal;font-weight:normal;font-stretch:normal;font-size:5.64444447px;line-height:0;font-family:'Browallia New';-inkscape-font-specification:'Browallia New';text-align:center;letter-spacing:0px;word-spacing:0px;text-anchor:middle;fill:#ff0000;fill-opacity:1;stroke:#b50000;stroke-width:0.32748669;stroke-miterlimit:4;stroke-dasharray:none;stroke-opacity:1"
           d="m 7.8244011,300.31346 v -2.32613 H 6.953481 v -0.31144 h 2.091862 v 0.31144 H 8.1716668 v 2.32613 z" />
      </g>
      <g
         transform="matrix(0.91606776,0,0,0.91606776,1.7721991,9.0306704)"
         id="g1439"
         style="fill:#ff0000;fill-opacity:1;stroke:#b50000;stroke-width:0.32748669;stroke-miterlimit:4;stroke-dasharray:none;stroke-opacity:1">
        <path
           inkscape:connector-curvature="0"
           id="path1396"
           style="font-style:normal;font-variant:normal;font-weight:normal;font-stretch:normal;font-size:5.64444447px;line-height:0;font-family:'Browallia New';-inkscape-font-specification:'Browallia New';text-align:center;letter-spacing:0px;word-spacing:0px;text-anchor:middle;fill:#ff0000;fill-opacity:1;stroke:#b50000;stroke-width:0.32748669;stroke-miterlimit:4;stroke-dasharray:none;stroke-opacity:1"
           d="m -1.0088238,313.54262 v -2.63756 h 1.7776693 v 0.31143 h -1.43040365 v 0.8158 h 1.2374783 v 0.31144 h -1.2374783 v 1.19889 z" />
        <path
           inkscape:connector-curvature="0"
           id="path1398"
           style="font-style:normal;font-variant:normal;font-weight:normal;font-stretch:normal;font-size:5.64444447px;line-height:0;font-family:'Browallia New';-inkscape-font-specification:'Browallia New';text-align:center;letter-spacing:0px;word-spacing:0px;text-anchor:middle;fill:#ff0000;fill-opacity:1;stroke:#b50000;stroke-width:0.32748669;stroke-miterlimit:4;stroke-dasharray:none;stroke-opacity:1"
           d="m 1.1161111,312.25829 q 0,-0.39687 0.1405599,-0.70831 0.1405599,-0.31144 0.4244358,-0.50161 0.2838759,-0.19017 0.6972873,-0.19017 0.2756077,0 0.5071181,0.0992 0.2342665,0.0992 0.3996311,0.27837 0.1681206,0.17639 0.2590711,0.4327 0.093707,0.25356 0.093707,0.55948 0,0.42444 -0.1543402,0.7221 -0.1515842,0.29765 -0.4547526,0.46853 -0.3004124,0.16812 -0.6531902,0.16812 -0.363802,0 -0.6587022,-0.17363 Q 1.422036,313.23668 1.2676957,312.928 1.1161115,312.61656 1.1161115,312.25827 Z m 0.35829,0.006 q 0,0.3142 0.1157552,0.54571 0.1185113,0.23151 0.3141927,0.35553 0.1984375,0.12402 0.471289,0.12402 0.4244358,0 0.6614584,-0.29214 0.2397786,-0.2949 0.2397786,-0.7717 0,-0.32798 -0.1129991,-0.56775 -0.1129991,-0.24254 -0.3114366,-0.36932 -0.1956815,-0.12953 -0.4712891,-0.12953 -0.2204861,0 -0.3886068,0.0744 -0.1681206,0.0717 -0.2866319,0.21773 -0.1157552,0.14607 -0.1736328,0.35002 -0.057878,0.2012 -0.057878,0.46302 z" />
        <path
           inkscape:connector-curvature="0"
           id="path1400"
           style="font-style:normal;font-variant:normal;font-weight:normal;font-stretch:normal;font-size:5.64444447px;line-height:0;font-family:'Browallia New';-inkscape-font-specification:'Browallia New';text-align:center;letter-spacing:0px;word-spacing:0px;text-anchor:middle;fill:#ff0000;fill-opacity:1;stroke:#b50000;stroke-width:0.32748669;stroke-miterlimit:4;stroke-dasharray:none;stroke-opacity:1"
           d="m 5.8179774,310.90506 h 0.3500217 v 1.52411 q 0,0.38309 -0.074414,0.58429 -0.071658,0.20119 -0.2011936,0.32521 -0.1267795,0.12403 -0.3169488,0.18742 -0.1901693,0.0606 -0.4382161,0.0606 -0.5153863,0 -0.7799697,-0.24805 -0.2645833,-0.24804 -0.2645833,-0.9095 v -1.52411 h 0.3500217 v 1.52135 q 0,0.31419 0.044097,0.45475 0.046853,0.13781 0.1295356,0.22325 0.082682,0.0827 0.2039497,0.12678 0.1240234,0.0413 0.2866319,0.0413 0.2315104,0 0.3858507,-0.0661 0.1543403,-0.0662 0.2397787,-0.23151 0.085438,-0.16536 0.085438,-0.54846 z" />
        <path
           inkscape:connector-curvature="0"
           id="path1402"
           style="font-style:normal;font-variant:normal;font-weight:normal;font-stretch:normal;font-size:5.64444447px;line-height:0;font-family:'Browallia New';-inkscape-font-specification:'Browallia New';text-align:center;letter-spacing:0px;word-spacing:0px;text-anchor:middle;fill:#ff0000;fill-opacity:1;stroke:#b50000;stroke-width:0.32748669;stroke-miterlimit:4;stroke-dasharray:none;stroke-opacity:1"
           d="m 6.7412633,313.54262 v -2.63756 h 0.35829 l 1.3835503,2.06981 v -2.06981 h 0.3362413 v 2.63756 H 8.461055 l -1.3863064,-2.07257 v 2.07257 z" />
        <path
           inkscape:connector-curvature="0"
           id="path1404"
           style="font-style:normal;font-variant:normal;font-weight:normal;font-stretch:normal;font-size:5.64444447px;line-height:0;font-family:'Browallia New';-inkscape-font-specification:'Browallia New';text-align:center;letter-spacing:0px;word-spacing:0px;text-anchor:middle;fill:#ff0000;fill-opacity:1;stroke:#b50000;stroke-width:0.32748669;stroke-miterlimit:4;stroke-dasharray:none;stroke-opacity:1"
           d="m 9.4008769,313.54262 v -2.63756 h 0.9095051 q 0.259071,0 0.460265,0.0358 0.20395,0.0358 0.388607,0.18465 0.187413,0.14608 0.303168,0.42168 0.118511,0.27285 0.118511,0.66146 0,0.59531 -0.283876,0.96463 -0.281119,0.36931 -0.945334,0.36931 z m 0.3500217,-0.31143 h 0.5622394 q 0.347266,0 0.531923,-0.10198 0.184657,-0.10197 0.28112,-0.339 0.09646,-0.23978 0.09646,-0.58704 0,-0.24254 -0.04961,-0.42444 -0.04685,-0.1819 -0.143316,-0.30592 -0.09646,-0.12402 -0.245291,-0.19017 -0.148828,-0.0661 -0.479557,-0.0661 H 9.7508986 Z" />
      </g>
    </g>
    <text
       xml:space="preserve"
       style="font-style:normal;font-weight:normal;font-size:10.58333302px;line-height:1.25;font-family:sans-serif;letter-spacing:0px;word-spacing:0px;fill:#000000;fill-opacity:1;stroke:none;stroke-width:0.26458332"
       x="27.884201"
       y="295.70682"
       id="text1374"><tspan
         sodipodi:role="line"
         id="tspan1372"
         x="27.884201"
         y="305.07059"
         style="stroke-width:0.26458332"></tspan></text>
  </g>
</svg>
